<svg width="24" height="24" viewBox="0 0 24 24" fill="none" xmlns="http://www.w3.org/2000/svg">
    <path d="M19.59 6.69C18.95 6.28 18.45 5.67 18.16 4.95C17.87 4.23 17.82 3.44 18 2.68H14.84V15.7C14.84 16.4 14.65 17.09 14.29 17.68C13.93 18.27 13.41 18.74 12.79 19.03C12.17 19.32 11.48 19.42 10.8 19.31C10.12 19.2 9.48 18.88 8.97 18.4C8.46 17.92 8.1 17.3 7.95 16.61C7.8 15.92 7.86 15.2 8.12 14.55C8.38 13.9 8.82 13.34 9.39 12.95C9.96 12.56 10.63 12.36 11.32 12.38V9.18C8.67 9.14 6.15 10.44 4.66 12.7C3.17 14.96 2.97 17.9 4.14 20.36C4.55 21.19 5.14 21.92 5.87 22.49C6.6 23.06 7.45 23.45 8.35 23.63C9.25 23.81 10.18 23.77 11.07 23.52C11.96 23.27 12.78 22.81 13.47 22.19C14.16 21.57 14.7 20.8 15.05 19.94C15.4 19.08 15.55 18.15 15.49 17.22V9.88C16.71 10.74 18.14 11.25 19.63 11.25V8.03C19.62 8.03 19.6 8.03 19.59 8.03C19.42 8.02 19.26 7.99 19.11 7.95C18.86 7.88 18.63 7.77 18.42 7.62C18.21 7.47 18.04 7.29 17.9 7.09C17.76 6.89 17.66 6.67 17.61 6.44C17.56 6.21 17.55 5.97 17.59 5.74C17.63 5.51 17.71 5.29 17.83 5.09C17.95 4.89 18.11 4.72 18.3 4.59C18.49 4.46 18.71 4.37 18.94 4.33C19.17 4.29 19.41 4.3 19.64 4.36L19.59 6.69Z" fill="black"/>
</svg>
