<svg width="24" height="24" viewBox="0 0 24 24" fill="none" xmlns="http://www.w3.org/2000/svg">
    <path d="M23.498 6.186C23.328 5.467 22.945 4.822 22.404 4.332C21.864 3.842 21.193 3.532 20.476 3.442C18.672 3.2 12 3.2 12 3.2C12 3.2 5.328 3.2 3.524 3.442C2.807 3.532 2.136 3.842 1.596 4.332C1.056 4.822 0.672 5.467 0.502 6.186C0.251 7.987 0.251 11.741 0.251 11.741C0.251 11.741 0.251 15.496 0.502 17.296C0.672 18.015 1.056 18.66 1.596 19.15C2.136 19.64 2.807 19.914 3.524 20.004C5.328 20.246 12 20.246 12 20.246C12 20.246 18.672 20.246 20.476 20.004C21.193 19.914 21.864 19.64 22.404 19.15C22.945 18.66 23.328 18.015 23.498 17.296C23.749 15.496 23.749 11.741 23.749 11.741C23.749 11.741 23.749 7.987 23.498 6.186Z" fill="#FF0000"/>
    <path d="M9.75 15.02L15.5 11.75L9.75 8.48V15.02Z" fill="white"/>
</svg>
